<svg id="Ebene_1" data-name="Ebene 1" xmlns="http://www.w3.org/2000/svg" viewBox="0 0 875.4 907.8"><defs><style>.cls-1{fill:#eacc69;}</style></defs><path class="cls-1" d="M53.7,335.7a15.6,15.6,0,0,0,1.5-9.9c-.5-2.7,1.3-5,3.8-6.2,4.5-2.1,7.9-5.6,11.7-8.6s8.8-6.2,13.2-9.3c2.6-1.8,5.1-3.9,7.8-5.6a148.8,148.8,0,0,1,12.7-7.8,66,66,0,0,0,13.6-8.5c3.4-2.8,7.6-4.7,11.5-6.8,1.5-.9,3.4-1.2,5-2a7.4,7.4,0,0,0,2.9-2.3c1.4-2.3,3.4-3.4,5.6-4.6a48.8,48.8,0,0,0,9.7-6c3-2.6,6.7-4.4,10-6.4s8-5.1,12.1-7.5c2.5-1.5,5.1-2.8,7.7-4.2s2.9-2,4.3-3,5.4-3.8,8.2-5.6L215.8,219c6.3-3.7,12.1-8.1,18.6-11.3l1-.7c3.3-3.9,8.2-5.6,12.5-8.1s7.5-3.8,10.8-6.5a1.9,1.9,0,0,1,1-.5c5.5-1,9.2-5.2,13.9-7.8s9.6-5,13.7-8.3a50.5,50.5,0,0,1,12.6-7.1c2.3-.9,4.1-3.1,6.3-4.3,10.4-5.9,20.5-12.7,31.9-16.7,1.3-.4,2.3-1.6,3.3-2.7a12.9,12.9,0,0,1,6.3-4.1c5.4-1.5,9.6-5.3,14-8.5a16.2,16.2,0,0,1,5.8-2.7,21.3,21.3,0,0,0,5-1.8,31.4,31.4,0,0,0,9.4-6.4c1.5-1.6,4-2,6.1-2.9s2.7-.9,3.9-1.6a53.1,53.1,0,0,1,13-4.7,20.3,20.3,0,0,0,7.4-3.9c3.7-2.8,8.1-4.3,12.3-6.1l3.5-1.6c10.1-5.8,20.3-11.3,31.4-15.1a6,6,0,0,0,2.4-1.2c1.9-2.2,4.6-2.8,7.1-3.6a63.1,63.1,0,0,0,15.9-8.2,16.8,16.8,0,0,1,3.9-1.6c3.1-1.1,6.3-2,9.3-3.4,6.6-2.9,13-6,19.9-8.1,2.5-.8,4.6-2.6,7-3.9s3.4-2,5.2-2.3,6.2-2.1,9.2-3.6,4.9-1.4,7.3-2.3,7.5-2.7,11.1-4.4a29.8,29.8,0,0,1,11.4-3.1,5.3,5.3,0,0,0,4.3-2.2c1-1.4,2.5-1.7,4.3-2a40.9,40.9,0,0,0,9.1-2.5,90.1,90.1,0,0,0,8.4-3.8,23.6,23.6,0,0,1,2.8-1.2L609,26a30.2,30.2,0,0,0,5.1-1.6c3.1-1.3,6-2.9,9.1-4a52.8,52.8,0,0,1,7.8-2.1c6.8-1.1,13.7-1.9,20.2-4.5a17.6,17.6,0,0,1,4.1-.7c3.2-.7,6.5-1.3,9.7-2.1l12.8-2.9c6.1-1.2,12.2-2.5,18.4-3.4s14.7-2,22.1-3a7.8,7.8,0,0,0,2.2-.3c4.2-2,8.3-.6,12.4.3a10.2,10.2,0,0,0,5.2-.1C743,.2,747.8-.7,752.9.7c2.5.7,5.3.3,8,.3a48.7,48.7,0,0,1,5.4.1l17,3a11.1,11.1,0,0,0,2.6.1,15.8,15.8,0,0,1,8.5,1.9,19,19,0,0,0,4.8,1.4c.7.2,1.6.1,2.2.5,5.3,3,11.4,3.7,16.9,6.1,3.2,1.4,6.1,3.4,9.1,4.9s4.7,2,7.1,3a15.7,15.7,0,0,1,3.3,1.9c2.8,2.6,5.5,5.4,8.2,8l3.8,3.2c4.2,3.1,8,6.5,10.3,11.3s3.9,9.4,6.4,13.9a50.9,50.9,0,0,1,5.9,19.4c.4,3.4,1,6.8,1.5,10.2s.9,6.8,1.3,10.2a9.1,9.1,0,0,1,.1,2.3c-1.8,6.4-.6,13.3-2.8,19.6a4.2,4.2,0,0,0-.3,1.9c.3,5.3-2,10-2.9,15.1a5.7,5.7,0,0,1-.4,1.4c-1.8,3.6-3.5,7.1-3.2,11.2a6.8,6.8,0,0,1-.9,2.2c-1.5,3.6-3.4,7.1-4.6,10.9a45.7,45.7,0,0,1-5.5,10.5,10.9,10.9,0,0,0-1.4,2.3c-1.5,3.1-2.9,6.2-4.2,9.4a47.4,47.4,0,0,1-9,14.3,10.9,10.9,0,0,0-1.4,2.3l-5.2,8.9a4.9,4.9,0,0,1-1.6,2.1c-3.7,2.2-5.4,5.9-7.4,9.4a20.5,20.5,0,0,1-3.1,3.5c-.5.5-1.3.9-1.6,1.6-2.2,4.4-6.4,6.4-10.2,9.1a4.7,4.7,0,0,0-2.2,3.3c-.5,4.4-2.3,8-6.3,10.5a25.1,25.1,0,0,0-3.2,3.3,9.6,9.6,0,0,1-2.3,2.6c-4.2,2.6-6.3,6.9-8.9,10.8-.5.7-.7,1.5-1.3,2l-9.5,8.7-2.2,2.2-6.1,6.3a119.1,119.1,0,0,1-8.5,8.9c-4.8,4.2-8.8,9.2-13,13.9-2.1,2.4-4.9,4.2-7.2,6.3-7.7,7-15.3,14.1-23.1,21-2.4,2.2-5.4,3.8-8,5.9s-2.4,2.9-3.7,4.2-5.2,5.2-7.9,7.7-3,2.4-4.4,3.7-3.6,4.4-6.3,5.5a1.6,1.6,0,0,0-.9.7c-4.1,5.9-10.6,9.2-15.6,14.2-3.3,3.4-7.6,5.9-11.3,9a119.6,119.6,0,0,0-9.2,8.2c-4.3,4.6-8.6,9.2-14.5,11.9a5.5,5.5,0,0,0-2.4,1.8c-2.4,4.2-6.4,6.6-10.2,9.1-6,4-11.1,9-16.3,14a29.5,29.5,0,0,1-6.9,5.3,31.7,31.7,0,0,0-9.3,7.3l-4.2,3.9c-3,2.7-5.9,5.3-9,7.9s-3.9,2.8-5.9,4.2l-.7.4c-4.6,3.6-9.9,6.6-13.8,10.9-5.6,6.1-12.3,10.8-18.4,16.1a16.1,16.1,0,0,1-3.3,2,14.7,14.7,0,0,0-5.4,4.8,25.5,25.5,0,0,1-4.3,4.4c-3.9,3.2-8.3,6.1-11.9,9.7a56,56,0,0,1-10.4,7.7c-2.3,1.5-4,3.8-6,5.8A100.9,100.9,0,0,1,478,537.8a30,30,0,0,0-4.9,3.7c-3.5,3.7-6.9,7.3-11.5,10s-5.4,4.7-8,7.1a7.3,7.3,0,0,1-.8.9,85.9,85.9,0,0,0-13.6,11.3c-.5.6-1.6.6-2.3,1.1a12.5,12.5,0,0,0-3.6,2.8,33.5,33.5,0,0,1-9.8,8.5,88.8,88.8,0,0,0-11.8,8.6c-5.3,4.3-10.5,9-15.8,13.4-1.9,1.5-4.2,2.4-6.1,4-3.7,3.1-7.2,6.5-10.9,9.7s-5.1,4.2-7.7,6.3-5.2,3.6-7,6.5-3,2.6-4.6,4l-7.2,6.3-.5.6-16.5,13c-2.7,2.2-5.5,4.2-8.1,6.5s-7.8,7-11.8,10.5a15.9,15.9,0,0,1-3.5,2.2c-5.4,2.8-9.4,7.1-13.1,11.7-2.3,2.9-5.3,4.7-8.2,6.7s-3.1,1.9-4.5,3c-3,2.5-6.4,4.6-8.7,7.9a2,2,0,0,1-.9.7,20.4,20.4,0,0,0-8.6,7.3,6.9,6.9,0,0,1-3.8,2.4,9,9,0,0,0-5.4,4.1c-1.6,2.2-4,3.6-5.8,5.4s-7.8,4-9.9,8.1a3.2,3.2,0,0,1-1.8,1.4c-4,1.8-6.7,5.1-9.7,8.1a49.8,49.8,0,0,1-6.3,4.8c-5.5,3.8-11.1,7.4-15.3,12.7-2.2,2.7-5.2,4.5-7.9,6.7-6.1,4.8-12.6,9.2-18.1,14.9-2.1,2.1-4.8,3.8-7.1,5.8a89.6,89.6,0,0,0-8.2,6.8c-3.2,3.3-7.4,5.6-11,8.4s-4.9,4.5-7.2,6.8a126.2,126.2,0,0,1-12.3,10.9c-3.2,2.3-6.7,4.4-9.8,6.8s-3.7,3.5-5.6,5.1c-4.2,3.4-8.6,6.5-12.8,9.9a135.7,135.7,0,0,0-10.6,9.5c-4.7,4.8-10.4,8.3-16.1,11.7a45.1,45.1,0,0,0-10.5,8.9,32.5,32.5,0,0,1-5,4c-.6.5-1.5.6-2,1.2-4.7,5.4-11.2,8.4-16.8,12.8-3.9,3-7.9,6.1-12,9-1.7,1.2-3.7,2-5.6,3.1a21.7,21.7,0,0,0-3.3,1.9c-3.5,2.8-7.5,3.6-11.8,3.6a17.8,17.8,0,0,0-4.5.8c-2.1.6-7.4-.7-8.8-2.5s-1.6-2.6-2.5-3.9-.6-2.3.2-3.6a8.5,8.5,0,0,0,1.5-3.5c1-5.3,3.8-9.6,7.2-13.8a58.1,58.1,0,0,0,6.1-9.6c2.3-4.5,4.1-9.3,7-13.5,1.1-1.6,1.9-3.3,2.9-5a3.5,3.5,0,0,1,.8-1.3c3.7-3.1,5.4-7.5,7.8-11.6,1.4-2.4,3.7-4.4,5.6-6.6a17.1,17.1,0,0,0,1.8-2,105.3,105.3,0,0,1,14.7-17.9,5.3,5.3,0,0,0,1-1.2c2.5-5.2,6.9-8.9,10.4-13.3a5.8,5.8,0,0,1,1.3-1.4c4.1-2.1,5.8-6.4,8.4-9.7s6-7.5,10-10.4a19,19,0,0,0,5.2-6.1,24.3,24.3,0,0,1,6.6-7.9,33.7,33.7,0,0,0,7.2-7.9c2.4-3.3,5.8-5.3,8.5-8.2l7.9-8.4c.5-.6.8-1.4,1.4-1.8,5.7-4.6,10.3-10.3,15.3-15.6a46.2,46.2,0,0,1,5.2-4.6l8.7-6.8c.4-.4.9-.7,1.1-1.2,1.8-4.4,5.8-6.8,8.9-9.9s8.7-7.5,13-11.2a13,13,0,0,0,1.8-1.5l7.8-9.4c.2-.3.4-.8.7-.9,4.3-1,5.3-5.7,8.6-7.8s6.2-4.7,9.2-7l1.1-1c3.4-3.2,7.1-6,9.8-9.6s7.5-4.9,9.8-8.9c.7-1.2,1.7-2.2,2.5-3.4s3.2-4,6.2-4.8,3.6-2.7,5.5-3.9c5.5-3.3,9.1-8.5,13.7-12.7.3-.3.5-.7.8-.8a33.6,33.6,0,0,0,9.1-7.3c2.5-2.9,5.9-4.9,9-7.2s3.5-2.1,5.2-3.2,3.2-1.6,3.6-2.8c1.3-3.8,5.1-4.9,7.2-7.7s5.3-4.4,8-6.5c5.2-4.4,10.3-8.9,15.4-13.4a10.6,10.6,0,0,1,2.1-1.6,26.5,26.5,0,0,0,9.4-6.5,66.4,66.4,0,0,1,7.1-5.8c6-4.8,12-9.7,18-14.4,3.7-2.8,6.6-6.5,11.2-8.1a3.5,3.5,0,0,0,1.7-1.5c2.1-4,5.9-5.9,9.6-8s5.2-2.8,6.9-5.4a5.2,5.2,0,0,1,1.1-1l14.5-10a16.7,16.7,0,0,0,1.6-1.2c4.2-4.5,9.4-7.8,14.2-11.6a30.7,30.7,0,0,1,4.3-2.6c3.2-1.8,6.5-3.5,9.2-6.3a15,15,0,0,1,4.8-3,13.8,13.8,0,0,0,5.6-4.5,9.7,9.7,0,0,1,3.7-3.3c4-1.5,6.5-4.8,9.8-7.2s7.5-5.1,11.4-7.7a13.4,13.4,0,0,0,2.8-1.8c3.7-4.2,8.6-6.4,13.2-9.2s7.6-5.5,11.3-8.3a11.1,11.1,0,0,1,2.4-2c7.8-3.2,13.5-9.2,20-14.1A6.2,6.2,0,0,1,509,421c4.7-1.5,8.5-4.4,12.5-7.1,7-4.7,14.1-9.4,20.8-14.5,3.5-2.7,6.6-5.5,10.8-7.2s5.2-3.7,7.9-5.4c7.4-4.8,15-9.4,22.4-14.2s14.1-9.4,21.1-14.2a5.9,5.9,0,0,1,2.3-1.3c5.4-.9,8.4-5.2,12.3-8.2l4.8-3.8,3.8-3.1c1.2-.9,2.4-2.2,3.8-2.5a14.9,14.9,0,0,0,6.2-3.6c2-1.6,3.9-3,6.9-1.9a8.4,8.4,0,0,0,6.7-.8c1.3-.7,2.9-.7,4.7-1.1-.4,3.4-1.1,5.8-4,7s-3.8,2.4-5.5,4a35.3,35.3,0,0,1-13.3,8.2c-1.4.5-2.6.9-3.2,2.3-1.4,3.3-4.1,5.2-7,7s-7,4.8-10.8,6.6c-8.6,4-15.3,10.8-23.3,15.4a64.5,64.5,0,0,0-12.6,10,18,18,0,0,1-4.7,2.7c-5.5,2.5-10.1,6.4-14.7,10.2a34.4,34.4,0,0,1-5.3,3c-.6.4-1.5.7-1.8,1.3-1.3,2.4-3.7,3.5-5.8,5s-3,2.7-4.7,3.9-4.7,3-7.1,4.5-3.4,1.7-4.9,2.8c-5.7,3.9-11.2,8.2-17.1,11.8a114.6,114.6,0,0,0-12,8.7c-3.8,3.1-8.1,5.4-12.2,8.1-2.2,1.5-4.3,3.1-6.4,4.8l-16.4,12.7c-.6.6-1.6.7-2.4,1.1-3,1.9-6.4,3.5-8.9,5.9-4.6,4.3-10.1,7-15.1,10.6l-3.8,2.6c-2.2,1.5-4.4,3-6.5,4.6s-6.8,5.5-10.3,8-9.7,6.7-14.6,10.1a38.1,38.1,0,0,0-4.3,3.7c-1.9,1.8-3.5,3.9-5.4,5.6a19.1,19.1,0,0,1-5.6,3.8,12.3,12.3,0,0,0-5.2,3.8c-2.5,3.3-6.4,4.5-9.7,6.8s-7.2,4.9-10.6,7.6c-5,4.1-9.8,8.5-14.8,12.7s-11.7,9.2-17.4,14-8.2,7.3-12.2,11a20.5,20.5,0,0,1-2.3,2c-8.6,5.1-14.9,12.9-22.6,19.1-2,1.7-4.2,3.3-6.3,5a49.7,49.7,0,0,0-9.8,9.1,13.9,13.9,0,0,1-2.7,2.1l-4.8,3.8a16.6,16.6,0,0,1-1.3,1.4l-14.3,11.6a6.8,6.8,0,0,0-2.3,2.5c-1.4,4-4.8,6.2-7.8,8.7l-13.1,10.6a15,15,0,0,1-2.5,1.9c-5.5,3.3-9.8,7.9-13.6,12.9s-8.1,8.2-12.9,11.4a18.8,18.8,0,0,0-3.1,3.2,10.6,10.6,0,0,1-1.6,2.1c-2.9,2.9-5.9,5.6-8.7,8.5-4.6,4.7-9,9.5-13.4,14.2l-1.9,1.3c-3.2,2.4-6.6,4.5-9.5,7.1a50.3,50.3,0,0,0-6,7c-2.4,3.1-4.7,6.2-8.8,7.6-1.4.5-2.5,2.2-3.6,3.4s-2.2,2.5-3.2,3.8a34.7,34.7,0,0,1-9.6,8.7,14.6,14.6,0,0,0-3,3.5c-1,1.4-1.7,3.2-2.8,4.5-4.6,5-8.8,10.3-14.3,14.5a43,43,0,0,0-6.9,5.9c-1.9,2.1-3.1,4.7-4.5,7.1s-1.4,2.9-2.5,3.8c-4.8,3.9-8.2,9.1-12.3,13.7s-7.8,9.5-12.8,13.1c-2.9,2.1-4.5,5.2-5.6,8.6a17.6,17.6,0,0,1-5.8,7.9,27.3,27.3,0,0,0-4.9,6.3c-1.5,2.9-2.6,5.7-5.8,7.3-1.5.8-2.4,2.9-3.4,4.6a41.1,41.1,0,0,1-5.3,7.3c-2.8,3-5.4,6.7-4,11.4a3.5,3.5,0,0,0,2,2.4,3.8,3.8,0,0,0,2.9-1.1,20.4,20.4,0,0,1,7.1-5.2,16,16,0,0,0,3.1-2.2l10.9-9.1c2.4-1.8,5.1-3.4,7.5-5.2s6.7-5.2,9.9-7.9,3.7-3.6,5.7-5.1c5.3-3.6,9.5-8.5,15.2-11.7,3.2-1.7,5.9-4.4,9.3-6a10.9,10.9,0,0,0,2.5-2.3,13.7,13.7,0,0,1,2.8-2.6c4-2.2,7-5.5,10.3-8.5a62.6,62.6,0,0,1,5.7-4.5c1.9-1.5,3.8-3,5.6-4.6,3.6-3.2,7.1-6.6,10.8-9.7s7.8-5.7,11.8-8.6a2.7,2.7,0,0,0,.8-.7c3.9-5.5,9.3-9.1,14.9-12.5.5-.3,1.2-.7,1.4-1.2,1.8-3.5,5.2-5.1,8.3-7.2a78.4,78.4,0,0,0,9.1-7,91.4,91.4,0,0,1,11.5-10.1c2.9-2,5.4-4.4,8.1-6.6s7.7-5,10.6-8.7c.8-1.1,2.3-1.6,3.4-2.5s3.1-2.6,4.6-3.9l2.3-1.9c.8-.7,1.8-1.1,2.5-1.8a21.3,21.3,0,0,1,8.8-6,8.4,8.4,0,0,0,3.3-2.9,65.9,65.9,0,0,1,7.3-6.7c3.6-3,7.4-5.9,11.1-8.9,6.4-5.2,13.2-10.1,19.3-15.7,4.4-4.1,10.2-6.5,13.7-11.5a5.9,5.9,0,0,1,1.7-1.5c5.6-2.8,9.7-7.4,14.4-11.4s7.5-6.1,11.3-9.2a8,8,0,0,0,1.8-1.9,5.7,5.7,0,0,1,3.9-3,6.2,6.2,0,0,0,1.9-1.1l12.1-9.9c2.4-2,5.1-3.7,7.2-5.9,5.1-5.1,10.8-9.4,16.2-14.1a37.6,37.6,0,0,1,9.8-5.9c2.4-1,4.2-3.3,6.3-5.1s.9-1.6,1.5-2.2c3.9-3.3,8-6.5,11.8-9.9s10.3-7.1,14.3-12.1a8.6,8.6,0,0,1,1.4-1.3c4.3-3.6,8.3-7.7,13-10.7,6.9-4.5,12.9-10,19.9-14.3a29.4,29.4,0,0,0,8.6-8.6c3-4,6.9-6.6,10.9-8.9A77.7,77.7,0,0,0,484,516.2c1.7-1.7,3.6-3.2,5.5-4.8a8.6,8.6,0,0,0,1.4-1.3c3.7-5.9,10.1-8.4,15.4-12.3a19.5,19.5,0,0,0,5.6-5.1,15.8,15.8,0,0,1,3.4-2.9c1.6-1.2,3.6-2.1,5-3.6,4-4.5,9.2-7.7,13.9-11.4s9.7-7.9,14.6-11.9l3.1-2.2c2.3-1.8,4.5-3.8,6.7-5.6l11.3-9.2,5.9-4.9,3.3-2.6c2.6-2,5.4-3.9,7.9-6.1s7.4-7.4,11.3-10.8c5.5-5,11.2-9.8,16.9-14.5a51.4,51.4,0,0,1,4.9-3.2c1.1-.7,2.2-1.6,3.3-2.4s.9-1.2,1.4-1.3c3.7-1.1,5.1-4.5,7.4-7a21.4,21.4,0,0,1,6.8-5.4c2.7-1.2,4.8-3.7,7.1-5.8l13.2-12.8a18.7,18.7,0,0,1,2.9-2l6.4-3.3c2.1-1.2,2.4-4.2,5-5,.8-.3,1.2-1.6,1.9-2.4s2.3-2.5,3.7-3.2a23.4,23.4,0,0,0,9.7-9,8.4,8.4,0,0,1,4.6-3.9,12.6,12.6,0,0,0,3.1-2.2l11.1-10a55,55,0,0,0,5.4-5.4c5.3-6,12.5-10.3,16.8-17.3a8.6,8.6,0,0,1,1.4-1.3c3.6-3.1,7.4-6,10.9-9.2,1.8-1.6,3.2-3.6,4.9-5.4s4.9-5.2,7.4-7.7l10.7-11.1,3.7-3.9a6.1,6.1,0,0,0,1.5-1.7c3.1-5.8,8.3-10,11.9-15.5.2-.3.3-.7.6-.9,6-4.1,9-10.5,13.1-16,1.8-2.5,3.5-5.1,5.4-7.5a6.6,6.6,0,0,1,2.6-2.1c2.3-.6,3.2-2,3.7-4.3s1.6-3.1,2.6-4.6c2.7-4.7,5.6-9.2,8.2-13.9,3.6-6.4,7-12.8,10.6-19.2,2.2-3.9,4.7-7.7,7-11.5l5.8-10.4a1.5,1.5,0,0,0,.2-1.1c-1.4-3.1.7-5.2,2.2-7.6,2.8-4.9,5.7-9.6,5.5-15.7-.1-3.4,1.6-6.9,2.4-10.4a50.3,50.3,0,0,0,.9-5.6c.1-.7-.2-1.6.1-2.2,2.2-5.2.2-10.4.2-15.6,0-1.5.1-3,0-4.6s-.5-4.7-.7-7.1a18.5,18.5,0,0,1-.4-2.3c.1-7-2.3-13.3-4.8-19.6s-5.1-10-8.1-14.8a17.7,17.7,0,0,1-1.6-2.2c-2-4.4-5.7-7.3-9.6-9.7-6.4-3.9-12.7-8.1-19.9-10.7-4.4-1.6-8.7-3.4-13.2-4.9-1.4-.5-3-.3-4.5-.5s-4.8-.1-6.9-.9c-6.6-2.5-13.5-2.5-20.4-2.8s-11.7-1.2-17.5-1.9c-.6,0-1.4-.2-1.9.1-2.5,1.5-5.2,1-7.9.9-5.6-.3-11.2.3-16.8.6-8,.4-15.5,3.4-23.5,3.7-3.4.1-6.9,1.5-10.3,2.4l-6,1.4c-6.5,1.3-13.3,1.8-19.5,3.9s-11.8,2-17.4,4.3c-.7.3-1.7.6-2.2.3-3.7-1.6-6.7.5-9.9,1.6s-4.4,2.1-6.6,3a21.6,21.6,0,0,1-4.9,1.1c-3,.5-6.1.7-9.1,1.3a5.5,5.5,0,0,0-3.2,1.9c-1.5,1.8-3.3,2.1-5.3,2.7a74.6,74.6,0,0,0-12.2,4.6c-3.1,1.4-6,2.7-9.4,3a13,13,0,0,0-6.1,2,24.7,24.7,0,0,1-10.8,3.6c-1.6.1-3.1,1.1-4.6,1.7-3.8,1.4-8,1.8-11.5,4.3a9.9,9.9,0,0,1-2.6.7c-.8.3-2,.2-2.5.7-3.6,3.8-9.1,3.8-13,7s-8.4,4.7-13.2,6-7.4,2.7-11.2,3.9c-5.7,1.7-9.9,6.1-15.6,7.9-4,1.2-7.9,3-11.8,4.5s-6,2.3-8.9,3.6a17.8,17.8,0,0,0-3.8,2.5,14.5,14.5,0,0,1-7.8,3.9,3.3,3.3,0,0,0-2.2.6c-2.5,2.5-6,3.2-9.1,4.8-6.1,3.2-12.2,6.5-18.4,9.6-1.6.9-3.2,1.5-4.9,2.3-3.6,1.6-7.4,2.7-10.4,5.5a5.9,5.9,0,0,1-2.7,1.4c-6.1,1.4-11.3,4.4-16.6,7.8a185,185,0,0,1-26.3,14.2,133.5,133.5,0,0,0-11.8,6.3c-4.9,2.8-9.6,5.9-14.5,8.7-2.7,1.5-5.2,3.7-8.6,4-.7,0-1.3.8-1.9,1.2a91.6,91.6,0,0,1-8,4.6,24.6,24.6,0,0,0-7.5,5.2,14.6,14.6,0,0,1-2.8,2.1c-3.3,1.8-7,3-9.9,5.8-1,1-2.7,1.3-4.1,1.9s-3.3.7-4.3,1.7c-4.9,4.7-12.3,5.1-16.9,10.2a8.6,8.6,0,0,1-2.9,1.9c-5.2,2.2-9.7,5.6-14.1,9.2a18.4,18.4,0,0,1-6.2,2.8,11.5,11.5,0,0,0-4.6,2.5c-7,5.6-14.4,10.7-22.7,14.3-2.2,1-4.1,2.8-6.3,3.7a32.2,32.2,0,0,0-8.9,5.7c-2.4,2.2-5.7,3.5-8.6,5.1a12.8,12.8,0,0,0-2,1.1,53.1,53.1,0,0,1-10.4,7.1c-2.4,1.4-4.7,3-7.1,4.5s-7.9,4.8-11.4,7.8c-5.1,4.3-11.1,6.8-16.7,10.2-2.3,1.4-4.8,2.5-7,4-8.2,5.6-16.4,11-25.3,15.3-2.8,1.4-5.2,3.7-7.8,5.6L96.2,319.1a5.6,5.6,0,0,1-2,1.1c-3.4.5-5.6,2.8-8.3,4.6s-7.1,4.1-10.6,6.2a11.8,11.8,0,0,0-3.3,3c-2.6,3.5-5.7,5.5-10.2,4C59.3,337.2,56.3,337.9,53.7,335.7Z"/></svg>