<svg id="Ebene_1" data-name="Ebene 1" xmlns="http://www.w3.org/2000/svg" viewBox="0 0 1000 1000">
    <defs>
        <style>.cls-1{fill:#f5f4f3;}</style>
    </defs>
    <path class="cls-1"
        d="M957.9,55C926.7,12.3,868.1,3.7,824.4,4c-57,.4-112.7,16.8-164.5,34.5-189.7,65-363.1,174.8-516,271.7-2.1,1.3-5.8,3.4-10,5.7-29.5,16.5-54,31.5-54.7,47.7-.2,5.3,1,9.8,3.5,13.1,11,14.4,34.1-.9,45.2-8.2l1.9-1.2,30.1-19.2c152.9-97.3,311-197.9,482.3-262.3,71-26.7,126-39.8,178.5-42.7,28.9-1.5,81,1,104.7,35.7s6.4,85.2-6.5,111.4c-31.3,63.5-81.4,115.6-121.6,154-49.2,46.8-103,91.2-150.6,130.3C464,625,277.8,776.3,93,924.7c68.2-84,148.4-164.9,245-247.2,57.9-49.4,122.4-99.7,197.1-154,28.9-21,59.2-41.3,88.5-60.9,39.2-26.3,79.6-53.4,117.4-82.5l10.7-8.2L740,365c-14.9-8.8-32.5,2.7-43,9.6l-2,1.3c-185,119.6-398.2,268-576.6,462.2-33.8,36.7-68.3,77.3-91.8,124.8-1.9,3.9-5.6,11.2-3.3,19.3a17.8,17.8,0,0,0,11.3,12.4,24.1,24.1,0,0,0,8.5,1.4c8.4,0,17.5-3.5,24.1-7.9,23.7-15.8,46.1-33.7,67.8-51,15.8-12.7,32.1-25.8,48.7-37.8,22.7-16.4,44.6-35.6,65.7-54.1,12-10.5,24.4-21.3,36.6-31.3s22.9-18.3,34.3-27.1c23.7-18.3,48.1-37.2,69.2-58.2,72-59.4,145.7-120.3,218.9-180.9,16.8-13.9,33.9-27.9,50.6-41.5,52.8-43.1,107.4-87.7,157.8-135.2,29.4-27.8,57.7-57.3,84.2-87.9,13.7-15.7,28.1-33,40.3-52.4a265,265,0,0,0,23.3-46.4C983.8,134.3,981.4,87.1,957.9,55Z" />
</svg>