<svg id="insta-icon" xmlns="http://www.w3.org/2000/svg" width="22.563" height="22.563" viewBox="0 0 22.563 22.563">
  <path id="Pfad_11" data-name="Pfad 11" d="M31.732,36.863h-12.3A5.136,5.136,0,0,1,14.3,31.732v-12.3A5.136,5.136,0,0,1,19.431,14.3h12.3a5.136,5.136,0,0,1,5.131,5.131v12.3a5.136,5.136,0,0,1-5.131,5.131Zm-12.3-21.414a3.987,3.987,0,0,0-3.982,3.982v12.3a3.987,3.987,0,0,0,3.982,3.982h12.3a3.987,3.987,0,0,0,3.982-3.982v-12.3a3.987,3.987,0,0,0-3.982-3.982Z" transform="translate(-14.3 -14.3)" fill="#04192a"/>
  <path id="Pfad_12" data-name="Pfad 12" d="M148.121,153.243a5.121,5.121,0,1,1,5.121-5.121,5.121,5.121,0,0,1-5.121,5.121Zm0-9.094a3.973,3.973,0,1,0,3.973,3.973A3.973,3.973,0,0,0,148.121,144.149Z" transform="translate(-136.84 -136.84)" fill="#04192a"/>
  <circle id="Ellipse_1" data-name="Ellipse 1" cx="0.78" cy="0.78" r="0.78" transform="translate(16.963 3.303)" fill="#04192a"/>
</svg>
