
<svg version="1.1" id="Ebene_1" xmlns="http://www.w3.org/2000/svg" xmlns:xlink="http://www.w3.org/1999/xlink" x="0px" y="0px"
	 viewBox="0 0 1000 1000" style="enable-background:new 0 0 1000 1000;" xml:space="preserve">
<style type="text/css">
	.st0{fill:#141414;}
</style>
<path class="st0" d="M957.9,55C926.7,12.3,868.1,3.7,824.4,4c-57,0.4-112.7,16.8-164.5,34.5c-189.7,65-363.1,174.8-516,271.7
	c-2.1,1.3-5.8,3.4-10,5.7c-29.5,16.5-54,31.5-54.7,47.7c-0.2,5.3,1,9.8,3.5,13.1c11,14.4,34.1-0.9,45.2-8.2l1.9-1.2l30.1-19.2
	c152.9-97.3,311-197.9,482.3-262.3c71-26.7,126-39.8,178.5-42.7c28.9-1.5,81,1,104.7,35.7s6.4,85.2-6.5,111.4
	c-31.3,63.5-81.4,115.6-121.6,154c-49.2,46.8-103,91.2-150.6,130.3C464,625,277.8,776.3,93,924.7c68.2-84,148.4-164.9,245-247.2
	c57.9-49.4,122.4-99.7,197.1-154c28.9-21,59.2-41.3,88.5-60.9c39.2-26.3,79.6-53.4,117.4-82.5l10.7-8.2L740,365
	c-14.9-8.8-32.5,2.7-43,9.6l-2,1.3c-185,119.6-398.2,268-576.6,462.2c-33.8,36.7-68.3,77.3-91.8,124.8c-1.9,3.9-5.6,11.2-3.3,19.3
	c1.5,5.8,5.7,10.4,11.3,12.4c2.7,1,5.6,1.4,8.5,1.4c8.4,0,17.5-3.5,24.1-7.9c23.7-15.8,46.1-33.7,67.8-51
	c15.8-12.7,32.1-25.8,48.7-37.8c22.7-16.4,44.6-35.6,65.7-54.1c12-10.5,24.4-21.3,36.6-31.3s22.9-18.3,34.3-27.1
	c23.7-18.3,48.1-37.2,69.2-58.2c72-59.4,145.7-120.3,218.9-180.9c16.8-13.9,33.9-27.9,50.6-41.5c52.8-43.1,107.4-87.7,157.8-135.2
	c29.4-27.8,57.7-57.3,84.2-87.9c13.7-15.7,28.1-33,40.3-52.4c9.3-14.7,17.1-30.2,23.3-46.4C983.8,134.3,981.4,87.1,957.9,55z"/>
</svg>
